<?xml version="1.0" encoding="UTF-8"?>
<svg version="1.1" xmlns="http://www.w3.org/2000/svg" width="1563" height="1563">
<path d="M0 0 C515.79 0 1031.58 0 1563 0 C1563 515.79 1563 1031.58 1563 1563 C1047.21 1563 531.42 1563 0 1563 C0 1047.21 0 531.42 0 0 Z " fill="#000324" transform="translate(0,0)"/>
<path d="M0 0 C0 186.12 0 372.24 0 564 C-34.32 564 -68.64 564 -104 564 C-104.72862255 470.04692472 -104.72862255 470.04692472 -104.93154907 423.6318512 C-104.93458633 422.93892144 -104.93762358 422.24599169 -104.94075288 421.53206407 C-105.00660277 406.47143504 -105.06754591 391.41078989 -105.12343725 376.35012069 C-105.15087773 368.96396036 -105.17940204 361.57780438 -105.20849609 354.19165039 C-105.21137279 353.45665433 -105.21424949 352.72165827 -105.21721336 351.9643896 C-105.31089987 328.15722796 -105.47609801 304.35121798 -105.67853886 280.54475355 C-105.88626227 256.07252143 -106.02152635 231.60092615 -106.06612978 207.12782736 C-106.07246883 203.66817929 -106.07963282 200.20853338 -106.08729935 196.74888802 C-106.08952431 195.72756525 -106.08952431 195.72756525 -106.09179421 194.68560971 C-106.11775457 183.74165057 -106.21968124 172.79966535 -106.35030475 161.85651007 C-106.48012077 150.84431677 -106.52744913 139.83378436 -106.4970303 128.82081359 C-106.48294736 122.85632886 -106.50436925 116.89761547 -106.62252045 110.93416023 C-107.28025225 76.05619829 -107.28025225 76.05619829 -101.82761812 67.65147901 C-96.79940379 62.5390993 -91.22198612 59.52496963 -84.55783296 57.0200721 C-81.04526382 55.61924811 -78.38784054 53.70091924 -75.3828125 51.421875 C-74.49827393 50.80489746 -73.61373535 50.18791992 -72.70239258 49.55224609 C-71.85185303 48.95750488 -71.00131348 48.36276367 -70.125 47.75 C-63.70213852 43.26999312 -57.27288666 38.80073615 -50.8125 34.375 C-44.84827304 30.28780024 -38.91935605 26.15189108 -33 22 C-26.7256928 17.59950861 -20.4405221 13.21617809 -14.125 8.875 C-13.48949219 8.43800781 -12.85398437 8.00101562 -12.19921875 7.55078125 C-10.46859993 6.36353952 -8.73506234 5.18073581 -7 4 C-6.42604492 3.6071582 -5.85208984 3.21431641 -5.26074219 2.80957031 C-1.11656442 0 -1.11656442 0 0 0 Z " fill="#FEFEFE" transform="translate(393,449)"/>
<path d="M0 0 C0 156.09 0 312.18 0 473 C-34.65 473 -69.3 473 -105 473 C-105.418972 422.13612069 -105.76974376 371.27387032 -105.97024126 320.4087589 C-105.99400431 314.4019788 -106.01859647 308.39520237 -106.04370117 302.38842773 C-106.04868507 301.19260125 -106.05366897 299.99677476 -106.05880389 298.7647111 C-106.14145057 279.4089099 -106.29123927 260.05418231 -106.46590313 240.69901774 C-106.64366629 220.83453399 -106.74913366 200.97061195 -106.7876814 181.10536546 C-106.81373659 168.84946816 -106.89597438 156.59660524 -107.05041287 144.34164228 C-107.15095425 135.93456942 -107.1811804 127.52906185 -107.15652617 119.12143163 C-107.14436813 114.27127836 -107.16280329 109.42641915 -107.26490402 104.57721138 C-107.83261802 76.24334373 -107.83261802 76.24334373 -103.13367105 69.20418525 C-98.78150243 64.84665828 -93.94126517 62.2144652 -88.25778353 59.95612085 C-85.02524008 58.58721097 -82.48178854 56.71611431 -79.67578125 54.6171875 C-78.78181641 53.99392578 -77.88785156 53.37066406 -76.96679688 52.72851562 C-76.09087891 52.11685547 -75.21496094 51.50519531 -74.3125 50.875 C-67.88820128 46.39719976 -61.4590035 41.92761067 -55 37.5 C-48.62770642 33.1301198 -42.27952457 28.72618483 -35.9375 24.3125 C-34.97763184 23.64476562 -34.01776367 22.97703125 -33.02880859 22.2890625 C-28.37939723 19.05334954 -23.73238058 15.81429722 -19.09126282 12.56669617 C-17.47484942 11.43589924 -15.85767001 10.30619754 -14.24047852 9.17651367 C-12.19143244 7.74502353 -10.1437042 6.31164486 -8.09741211 4.8762207 C-7.18096924 4.23644287 -6.26452637 3.59666504 -5.3203125 2.9375 C-4.50836426 2.36902344 -3.69641602 1.80054688 -2.85986328 1.21484375 C-1 0 -1 0 0 0 Z " fill="#FEFEFE" transform="translate(260,541)"/>
<path d="M0 0 C150.90060241 0 150.90060241 0 177.53125 25.40625 C194.04808023 42.75937544 196.73541286 63.34957665 196.2734375 86.26171875 C195.54674587 107.98739621 187.97943108 125.78738067 172.125 140.75 C167.42071867 144.84099312 162.48594247 148.06046405 157 151 C156.22914063 151.41378906 155.45828125 151.82757812 154.6640625 152.25390625 C149.36324042 155 149.36324042 155 147 155 C153.63542531 167.35041472 160.27361303 179.69881648 167 192 C171.96364538 201.07785246 176.87494446 210.18315874 181.77148438 219.29736328 C184.61185604 224.58010781 187.46232123 229.85670672 190.34375 235.1171875 C190.87613281 236.08914063 191.40851563 237.06109375 191.95703125 238.0625 C192.94199543 239.85787775 193.92878901 241.6522539 194.91796875 243.4453125 C198.45677541 249.8942553 201.70265418 256.40530837 205 263 C186.85 263 168.7 263 150 263 C136.25675676 237.80405405 136.25675676 237.80405405 130.6875 227.375 C129.7395495 225.60332341 128.79159805 223.83164732 127.84359741 222.05999756 C125.57656258 217.82244156 123.31172881 213.58370938 121.04736328 209.34472656 C119.43298597 206.32265344 117.81779196 203.30101833 116.20184326 200.27978516 C115.26002388 198.51874295 114.3187298 196.75741983 113.37744141 194.99609375 C109.04597395 186.90730597 104.64858079 178.85710625 100.14746094 170.86132812 C99.72883789 170.11044922 99.31021484 169.35957031 98.87890625 168.5859375 C98.33085327 167.61213135 98.33085327 167.61213135 97.77172852 166.61865234 C97 165 97 165 97 163 C81.49 163 65.98 163 50 163 C50 196 50 229 50 263 C33.5 263 17 263 0 263 C0 176.21 0 89.42 0 0 Z " fill="#FDFEFE" transform="translate(843,613)"/>
<path d="M0 0 C1.04590805 0.00222061 2.0918161 0.00444122 3.16941833 0.00672913 C4.35056717 0.00680466 5.531716 0.00688019 6.74865723 0.00695801 C8.03404892 0.01211929 9.31944061 0.01728058 10.64378357 0.02259827 C12.60601112 0.02472069 12.60601112 0.02472069 14.60787964 0.02688599 C18.09150591 0.03071042 21.57509071 0.04054005 25.05870056 0.05158997 C28.6111444 0.06180569 32.16359491 0.06638395 35.71604919 0.07142639 C42.69067564 0.0821624 49.66527449 0.09923792 56.63987732 0.12025452 C68.91256898 32.40211584 81.17003903 64.68972487 93.41555786 96.98190308 C96.4818925 105.06771818 99.54936839 113.15309937 102.6176033 121.23819351 C111.87756771 145.63934415 121.13296166 170.04212503 130.34202576 194.46253967 C134.17834382 204.63117183 138.03670617 214.79112866 141.91331482 224.94447327 C142.80308705 227.27713938 143.69281718 229.60982155 144.58250427 231.94252014 C146.30138415 236.44912037 148.02455272 240.95405011 149.74998474 245.45814514 C150.5272512 247.49519086 151.30435924 249.53229704 152.08128357 251.56947327 C152.44285553 252.50981918 152.80442749 253.4501651 153.17695618 254.41900635 C153.50317963 255.27649979 153.82940308 256.13399323 154.16551208 257.01747131 C154.45176956 257.7655455 154.73802704 258.51361969 155.03295898 259.28436279 C155.63987732 261.12025452 155.63987732 261.12025452 155.63987732 263.12025452 C138.47987732 263.12025452 121.31987732 263.12025452 103.63987732 263.12025452 C100.96830223 255.84366043 98.29825479 248.56654289 95.63206482 241.28797913 C94.72507989 238.81336791 93.81721101 236.33908048 92.90843201 233.86512756 C91.60042604 230.30388812 90.29562988 226.74148665 88.99143982 223.17884827 C88.58616058 222.07754074 88.18088135 220.97623322 87.76332092 219.84155273 C87.3830777 218.80100235 87.00283447 217.76045197 86.61106873 216.68836975 C86.27797699 215.78013962 85.94488525 214.87190948 85.60169983 213.93615723 C84.49699694 210.70194734 83.57878403 207.40642801 82.63987732 204.12025452 C26.70487732 204.61525452 26.70487732 204.61525452 -30.36012268 205.12025452 C-37.22923611 223.83289035 -37.22923611 223.83289035 -44.09230042 242.54774475 C-44.95088536 244.88319363 -45.80967635 247.21856676 -46.66871643 249.55384827 C-47.34118408 251.39227295 -47.34118408 251.39227295 -48.02723694 253.26783752 C-48.45347351 254.42497253 -48.87971008 255.58210754 -49.31886292 256.77430725 C-49.68970505 257.78468552 -50.06054718 258.79506378 -50.44262695 259.83605957 C-51.36012268 262.12025452 -51.36012268 262.12025452 -52.36012268 263.12025452 C-53.89495238 263.21344901 -55.43404351 263.23771252 -56.97169495 263.23377991 C-57.95263626 263.23370438 -58.93357758 263.23362885 -59.94424438 263.23355103 C-61.01089828 263.22838974 -62.07755219 263.22322845 -63.17652893 263.21791077 C-64.80581581 263.21578835 -64.80581581 263.21578835 -66.46801758 263.21362305 C-69.95291343 263.208005 -73.4377461 263.19544944 -76.92262268 263.18275452 C-79.27874155 263.17774184 -81.63486142 263.17317853 -83.99098206 263.16908264 C-89.78071732 263.15802971 -95.57041549 263.14127403 -101.36012268 263.12025452 C-99.97665253 256.01206452 -97.79496591 249.53124415 -95.16871643 242.79212952 C-94.75172989 241.7066684 -94.33474335 240.62120728 -93.90512085 239.50285339 C-93.00857053 237.17110926 -92.10916479 234.84046138 -91.20716858 232.51081848 C-89.77631709 228.8152266 -88.35252733 225.11696047 -86.93141174 221.4176178 C-86.44842229 220.16056353 -85.96542056 218.90351398 -85.48240662 217.64646912 C-85.24274044 217.0227177 -85.00307426 216.39896629 -84.75614548 215.75631332 C-84.02631449 213.85781969 -83.29565223 211.95964798 -82.56474304 210.06156921 C-78.19967038 198.72371769 -73.89462224 187.36375499 -69.61012268 175.99525452 C-68.91723782 174.15855909 -68.22428529 172.32188918 -67.53126526 170.48524475 C-66.15765846 166.84439312 -64.78455153 163.20335358 -63.41188049 159.56214905 C-59.93937965 150.35118642 -56.46291816 141.1417192 -52.98512268 131.93275452 C-52.63569611 131.00745941 -52.28626953 130.08216431 -51.92625427 129.12882996 C-45.58608031 112.3424386 -39.21873908 95.56643009 -32.83766174 78.79554749 C-28.57246124 67.58393439 -24.31716239 56.36866686 -20.07670403 45.14767647 C-18.54675732 41.0999385 -17.01543545 37.0527205 -15.4841814 33.00547695 C-13.99447284 29.0674433 -12.50716121 25.12851466 -11.02151775 21.18894577 C-9.88390375 18.1743606 -8.742818 15.16108958 -7.60231018 12.14759827 C-7.18659256 11.04288177 -6.77087494 9.93816528 -6.34255981 8.79997253 C-5.96276474 7.79828033 -5.58296967 6.79658813 -5.19166565 5.76454163 C-4.86036652 4.88720871 -4.52906738 4.00987579 -4.18772888 3.10595703 C-2.95599414 0.15061575 -2.95599414 0.15061575 0 0 Z " fill="#FDFDFD" transform="translate(1167.360122680664,612.8797454833984)"/>
<path d="M0 0 C0 15.51 0 31.02 0 47 C-3.69278977 45.76907008 -6.83634378 44.70119369 -10.2578125 43.046875 C-31.12419629 33.17379665 -50.69078529 27.90755327 -73.8125 27.75 C-74.97015869 27.74049316 -76.12781738 27.73098633 -77.32055664 27.72119141 C-88.53662321 27.76485571 -99.37006378 29.17739918 -108.1171875 36.859375 C-112.8623016 41.9392067 -114.59101135 46.3872669 -115.375 53.3125 C-114.52975436 61.62408212 -111.70285017 66.95825229 -105.33300781 72.28662109 C-101.362102 75.2028849 -97.08945438 77.26025992 -92.625 79.3125 C-91.63258301 79.77833496 -90.64016602 80.24416992 -89.61767578 80.72412109 C-80.02746918 85.14335764 -70.19759973 88.87516358 -60.3203125 92.59375 C-41.63313975 99.65195719 -23.41967746 106.75647916 -9 121 C-8.29230469 121.64710938 -7.58460938 122.29421875 -6.85546875 122.9609375 C-1.46805284 128.00842086 2.30695353 133.63398128 6 140 C6.39058594 140.62132812 6.78117188 141.24265625 7.18359375 141.8828125 C16.22530194 157.57387028 16.32283023 179.70358583 11.97265625 196.80078125 C5.65446994 217.58228562 -5.73935409 233.63804035 -25 244 C-61.09324638 262.85165991 -103.42735642 257.71524831 -140.97216797 245.99267578 C-150.48650126 242.87339831 -160.03624621 239.4818769 -169 235 C-169 218.83 -169 202.66 -169 186 C-162.73 188.97 -156.46 191.94 -150 195 C-146.54473291 196.48917804 -143.12403815 197.94721578 -139.625 199.3125 C-138.37952393 199.80302856 -138.37952393 199.80302856 -137.10888672 200.3034668 C-112.78230491 209.76065571 -81.26522115 217.40143793 -56 207 C-49.54201945 203.71095697 -43.71649931 199.46150832 -41.03515625 192.4921875 C-38.39658288 183.76179267 -37.6614882 177.29462397 -41.5 168.875 C-50.52884577 152.44000424 -70.87290283 147.12472332 -87.328125 140.64453125 C-131.4021955 123.25542526 -131.4021955 123.25542526 -145 111 C-145.94939453 110.15501953 -145.94939453 110.15501953 -146.91796875 109.29296875 C-159.2624613 97.65699013 -166.63959958 81.2508799 -167.1796875 64.328125 C-167.58779981 43.26873729 -163.37383777 24.0643894 -148.39453125 8.33984375 C-110.33865327 -28.84689509 -44.15051598 -22.07525799 0 0 Z " fill="#FDFDFD" transform="translate(669,625)"/>
<path d="M0 0 C16.5 0 33 0 50 0 C50 86.79 50 173.58 50 263 C33.5 263 17 263 0 263 C0 176.21 0 89.42 0 0 Z " fill="#FCFCFD" transform="translate(733,613)"/>
<path d="M0 0 C8.435625 -0.04125 16.87125 -0.0825 25.5625 -0.125 C28.1929126 -0.14320801 30.8233252 -0.16141602 33.53344727 -0.18017578 C71.94783204 -0.33690485 71.94783204 -0.33690485 84.4375 9.390625 C91.67834069 16.84869091 94.39168152 26.16005258 94.3125 36.3125 C94.30512817 37.43289673 94.30512817 37.43289673 94.29760742 38.57592773 C94.07180356 49.25818725 90.91409544 58.19510668 83.1875 65.75 C71.3715475 74.09067235 58.15721914 75.47770899 43.9453125 75.29296875 C42.25619751 75.28843689 42.25619751 75.28843689 40.53295898 75.28381348 C36.39687706 75.26832515 32.26092758 75.22644449 28.125 75.1875 C18.84375 75.125625 9.5625 75.06375 0 75 C0 50.25 0 25.5 0 0 Z " fill="#010324" transform="translate(893,657)"/>
<path d="M0 0 C3.37409803 1.68704902 3.82377745 5.6038998 4.9921875 9.0078125 C5.29039902 9.85642349 5.58861053 10.70503448 5.89585876 11.57936096 C6.54959557 13.44150547 7.20008997 15.30479057 7.84780884 17.16903687 C9.61413845 22.25202961 11.4036567 27.32685323 13.19140625 32.40234375 C13.57163437 33.48354996 13.95186249 34.56475616 14.34361267 35.6787262 C17.3110622 44.09792603 20.34205862 52.49305377 23.40234375 60.87890625 C24.0784671 62.73216522 24.0784671 62.73216522 24.76824951 64.62286377 C26.55540415 69.51725508 28.34453112 74.41091366 30.13787842 79.30303955 C31.39241073 82.7259241 32.64362377 86.15000817 33.89453125 89.57421875 C34.4513987 91.08732384 34.4513987 91.08732384 35.01951599 92.6309967 C35.36861526 93.58767746 35.71771454 94.54435822 36.07739258 95.5300293 C36.37776932 96.34916306 36.67814606 97.16829681 36.98762512 98.01225281 C38.44175561 102.3037207 39.69798769 106.65995898 41 111 C14.27 111 -12.46 111 -40 111 C-39.32609029 107.63045146 -38.69416062 104.87487399 -37.55151367 101.71533203 C-37.10681732 100.47767342 -37.10681732 100.47767342 -36.65313721 99.2150116 C-36.32803162 98.32163589 -36.00292603 97.42826019 -35.66796875 96.5078125 C-35.32376892 95.55324661 -34.97956909 94.59868073 -34.62493896 93.6151886 C-33.48269188 90.45049097 -32.33523535 87.28771095 -31.1875 84.125 C-30.38917928 81.91813151 -29.59108739 79.71118024 -28.79321289 77.50415039 C-27.09560842 72.81099539 -25.39539743 68.11879495 -23.69335938 63.42724609 C-21.62546688 57.72692472 -19.5618305 52.02508099 -17.5003233 46.32244873 C-15.42893531 40.59294449 -13.35417664 34.86466694 -11.27798462 29.13690186 C-10.38360776 26.6686457 -9.49003392 24.20009842 -8.59725952 21.73126221 C-7.34755116 18.2768629 -6.09420936 14.82380416 -4.83984375 11.37109375 C-4.46462585 10.33181229 -4.08940796 9.29253082 -3.70281982 8.22175598 C-3.35994934 7.28031235 -3.01707886 6.33886871 -2.66381836 5.36889648 C-2.36503281 4.54485825 -2.06624725 3.72082001 -1.75840759 2.87181091 C-1 1 -1 1 0 0 Z " fill="#020525" transform="translate(1193,663)"/>
</svg>
